<svg width="20" height="20" viewBox="0 0 20 20" fill="none" xmlns="http://www.w3.org/2000/svg">
<g clip-path="url(#clip0)">
<path d="M19.6079 14.2073C16.934 13.7799 15.7289 11.1195 15.6802 11.0066C15.6764 10.9993 15.6739 10.992 15.6689 10.9847C15.5327 10.7151 15.5002 10.4929 15.5752 10.3242C15.7214 9.99147 16.2815 9.81905 16.6515 9.70491C16.759 9.67212 16.8603 9.64055 16.944 9.60898C17.309 9.46935 17.569 9.31757 17.7415 9.14636C17.9466 8.94116 17.9866 8.74445 17.9841 8.61696C17.9778 8.30612 17.7328 8.02927 17.3415 7.89449C17.2103 7.84228 17.059 7.81435 16.9065 7.81435C16.8027 7.81435 16.6477 7.82771 16.5015 7.89449C16.189 8.03656 15.909 8.11427 15.6677 8.1252C15.5402 8.11912 15.4502 8.09241 15.3914 8.06691C15.3989 7.94549 15.4064 7.82042 15.4152 7.69172L15.4189 7.63586C15.5052 6.32085 15.6114 4.68529 15.1639 3.7139C14.8577 3.0485 14.4464 2.4766 13.9401 2.01277C13.5163 1.62421 13.0238 1.30851 12.4763 1.07538C11.525 0.667401 10.6375 0.606689 10.1924 0.606689H10.1912C10.1737 0.606689 10.1574 0.606689 10.1424 0.606689C10.0187 0.607904 9.81742 0.610332 9.79867 0.610332C9.3549 0.610332 8.46611 0.671044 7.51232 1.07902C6.96604 1.31216 6.47602 1.62664 6.0535 2.0152C5.54973 2.47903 5.13971 3.04972 4.8347 3.71269C4.38717 4.68286 4.49343 6.31842 4.57843 7.63222V7.63465C4.58718 7.7755 4.59718 7.92242 4.60593 8.0657C4.54093 8.09363 4.43468 8.1252 4.27842 8.1252C4.02591 8.1252 3.72589 8.04749 3.38713 7.89328C3.28712 7.84835 3.17337 7.82528 3.04836 7.82528C2.8471 7.82528 2.63334 7.88235 2.44959 7.98799C2.21707 8.12034 2.06707 8.30612 2.02582 8.51375C1.99956 8.64974 2.00081 8.92052 2.31083 9.19493C2.48209 9.3455 2.7321 9.48513 3.05586 9.60898C3.14087 9.64177 3.24212 9.67212 3.34838 9.70491C3.71839 9.81905 4.27967 9.99147 4.42593 10.3242C4.49968 10.4929 4.46718 10.7151 4.33092 10.9847C4.32717 10.992 4.32342 10.9993 4.32092 11.0066C4.28592 11.0843 3.96716 11.7825 3.31338 12.5195C2.94211 12.9384 2.53334 13.2893 2.09832 13.5613C1.56704 13.894 0.993268 14.1101 0.39199 14.2061C0.155729 14.2437 -0.0130284 14.4477 0.00072223 14.6796C0.0044724 14.7464 0.0207232 14.8132 0.0494745 14.8775V14.8787C0.145729 15.0961 0.366989 15.2794 0.727006 15.4409C1.16703 15.6388 1.82456 15.8052 2.68335 15.9351C2.7271 16.0153 2.7721 16.2156 2.80335 16.3528C2.83585 16.4985 2.8696 16.6491 2.91836 16.8081C2.97086 16.9806 3.10587 17.187 3.45463 17.187C3.58714 17.187 3.73839 17.1578 3.91465 17.1251C4.17216 17.0765 4.52468 17.0097 4.96345 17.0097C5.20721 17.0097 5.45972 17.0304 5.71349 17.0716C6.20351 17.1506 6.62603 17.4395 7.1148 17.7747C7.82983 18.2652 8.63987 18.8201 9.87743 18.8201C9.91118 18.8201 9.94493 18.8189 9.97868 18.8165C10.0187 18.8189 10.0699 18.8201 10.1224 18.8201C11.36 18.8201 12.17 18.2652 12.8851 17.7759L12.8863 17.7747C13.3751 17.4408 13.7976 17.1518 14.2876 17.0728C14.5414 17.0316 14.7939 17.0109 15.0377 17.0109C15.4577 17.0109 15.7902 17.0631 16.0865 17.119C16.2802 17.1554 16.4302 17.1736 16.5465 17.1736H16.5577H16.569C16.824 17.1736 17.0115 17.0376 17.0828 16.8009C17.1303 16.6442 17.164 16.4985 17.1978 16.3492C17.2265 16.2205 17.274 16.014 17.3165 15.9339C18.1753 15.8028 18.8328 15.6376 19.2729 15.4397C19.6316 15.2782 19.8529 15.0949 19.9491 14.8787C19.9779 14.8144 19.9954 14.7476 19.9991 14.6784C20.0129 14.4489 19.8441 14.2437 19.6079 14.2073Z" fill="white"/>
</g>
<defs>
<clipPath id="clip0">
<rect width="20" height="19.4268" fill="white"/>
</clipPath>
</defs>
</svg>
